<svg width="619" height="498" viewBox="0 0 619 498" fill="none" xmlns="http://www.w3.org/2000/svg">
<path d="M0.00877826 324.4H124.44C124.44 375.555 165.917 399.059 323.531 399.059C454.184 399.059 493.587 384.542 493.587 346.521C493.587 306.427 465.935 299.514 309.014 291.91C98.1714 282.232 14.5258 249.05 14.5258 140.518C14.5258 34.0601 123.058 0.187123 304.175 0.187123C486.674 0.187123 597.28 45.812 597.28 165.404H472.848C472.848 112.175 419.619 99.041 290.349 99.041C167.991 99.041 138.957 110.793 138.957 146.74C138.957 184.069 167.991 190.982 309.014 199.277C499.808 209.647 618.018 220.016 618.018 342.374C618.018 471.644 495.661 497.913 316.618 497.913C118.219 497.913 0.00877826 464.04 0.00877826 324.4Z" fill="white"/>
</svg>
